<mxfile host="app.diagrams.net" modified="2024-03-29T12:55:01.751Z" agent="Mozilla/5.0 (Macintosh; Intel Mac OS X 10_15_7) AppleWebKit/605.1.15 (KHTML, like Gecko) Version/17.3 Safari/605.1.15" version="24.0.7" etag="xkEqJmrbRetGXmhIvtW9" type="github">
  <diagram name="Page-1" id="0U1YV31H79G21cNW14qM">
    <mxGraphModel>
      <root>
        <mxCell id="0" />
        <mxCell id="1" parent="0" />
      </root>
    </mxGraphModel>
  </diagram>
</mxfile>
